<svg width="118" height="72" viewBox="0 0 118 72" fill="none" xmlns="http://www.w3.org/2000/svg">
<path d="M8 1.09999C10.9333 0.966662 13.8 0.899997 16.6 0.899997C19.4667 0.899997 22.4667 1.2 25.6 1.8C28.8 2.4 31.9333 3.53333 35 5.19999C38.1333 6.8 40.7667 8.9 42.9 11.5C45.1 14.0333 46.8667 17.4 48.2 21.6C49.5333 25.8 50.2 30.9 50.2 36.9C50.2 42.9 49.2 48.3 47.2 53.1C45.2667 57.8333 42.6 61.4667 39.2 64C32.6 68.9333 24.6333 71.4 15.3 71.4C12.0333 71.4 8.6 71.2667 5 71H2.98023e-08V1.09999H8ZM8.3 70.2C9.7 70.3333 11.4667 70.4 13.6 70.4C15.7333 70.4 17.3333 70.3667 18.4 70.3C19.4667 70.2333 20.9333 69.9667 22.8 69.5C24.6667 68.9667 26.4 68.2667 28 67.4C29.6 66.5333 31.2667 65.2667 33 63.6C34.8 61.8667 36.3333 59.8333 37.6 57.5C40.4667 52.0333 41.9 44.9 41.9 36.1C41.9 29.8333 41.1333 24.4333 39.6 19.9C38.0667 15.3 36.3 11.9 34.3 9.7C32.3667 7.5 30 5.76666 27.2 4.5C24.4 3.16666 22.1667 2.4 20.5 2.2C18.8333 2 16.9 1.9 14.7 1.9C12.5 1.9 10.3667 2 8.3 2.2V70.2ZM95.107 71.4C82.6404 71.4 73.407 67.8667 67.407 60.8C65.2737 58.2667 63.5404 54.9 62.207 50.7C60.8737 46.5 60.207 41.4 60.207 35.4C60.207 29.4 61.1737 24.0333 63.107 19.3C65.107 14.5 67.807 10.8 71.207 8.2C77.807 3.33333 85.7737 0.899997 95.107 0.899997C98.107 0.899997 101.04 1.13333 103.907 1.6C106.774 2 108.907 2.43333 110.307 2.89999L112.407 3.6L112.107 4.6C106.907 2.8 101.24 1.9 95.107 1.9C88.0404 1.9 82.1404 4.2 77.407 8.8C73.807 12.2 71.2737 17.2 69.807 23.8C68.9404 27.5333 68.507 32.1 68.507 37.5C68.507 42.9 69.2737 47.9 70.807 52.5C72.3404 57.0333 74.0737 60.4 76.007 62.6C78.007 64.8 80.407 66.5667 83.207 67.9C86.007 69.1667 88.2404 69.9 89.907 70.1C91.5737 70.3 93.5404 70.4 95.807 70.4C98.1404 70.4 101.24 70.1333 105.107 69.6V49H93.007V48H117.707V49H113.407V68.7C108.34 70.5 102.24 71.4 95.107 71.4Z" fill="white"/>
</svg>
